<svg preserveAspectRatio="none" width="100%" height="100%" overflow="visible" style="display: block;" viewBox="0 0 19 31" fill="none" xmlns="http://www.w3.org/2000/svg">
<g id="Group 5">
<path id="Vector" fill-rule="evenodd" clip-rule="evenodd" d="M10.0677 12.1398V2.02705C10.0677 1.81308 10.0902 1.62164 10.124 1.45272L10.1352 1.37389C10.1803 1.21623 10.2366 1.09235 10.3154 0.991001C10.3943 0.889648 10.4956 0.799557 10.6195 0.720728H7.99558C8.11946 0.799557 8.2208 0.878387 8.28837 0.979739C8.32216 1.02478 8.34469 1.05857 8.36721 1.10361C8.36721 1.10361 8.41226 1.19371 8.42352 1.23875C8.50235 1.44146 8.53612 1.71173 8.53612 2.03831V12.1398H10.0451H10.0677ZM10.7884 2.02705V12.8492H7.84918V2.02705C7.84918 1.79056 7.82666 1.61038 7.78161 1.4865C7.78161 1.46398 7.77035 1.45272 7.75909 1.44146L7.74783 1.41893C7.74783 1.41893 7.669 1.3401 7.59017 1.29506C7.50008 1.25001 7.36495 1.20497 7.20729 1.15992L6.93701 1.09235V0H11.6893V1.09235L11.419 1.15992C11.2614 1.20497 11.1375 1.25001 11.0474 1.29506C10.9798 1.32884 10.9235 1.37389 10.8897 1.41893C10.8672 1.45272 10.8447 1.49776 10.8335 1.55407L10.8222 1.62164C10.7997 1.73425 10.7884 1.86939 10.7884 2.02705Z" fill="var(--fill-0, #1E1E1E)"/>
<path id="Vector_2" fill-rule="evenodd" clip-rule="evenodd" d="M10.428 13.2434V29.0319C10.428 29.4147 10.4956 29.6963 10.6082 29.8539C10.7321 30.0229 10.9798 30.1467 11.3289 30.2481V30.6985H7.29738V30.2481C7.65774 30.1467 7.89423 30.0229 8.01811 29.8652C8.14198 29.7075 8.19828 29.426 8.19828 29.0319V13.2434H1.6667C1.27255 13.2434 0.991013 13.2997 0.822092 13.4236C0.653172 13.5362 0.529295 13.784 0.450465 14.1331H0V10.4844H0.450465C0.540556 10.856 0.653172 11.0925 0.822092 11.2164C0.991013 11.3402 1.26129 11.3965 1.6667 11.3965H16.9484C17.3425 11.3965 17.6241 11.329 17.793 11.2164C17.9619 11.0925 18.0858 10.8447 18.1646 10.4844H18.615V14.1331H18.1646C18.0745 13.7727 17.9619 13.5362 17.793 13.4236C17.6241 13.2997 17.3538 13.2434 16.9484 13.2434H10.4168H10.428Z" fill="var(--fill-0, #1E1E1E)"/>
</g>
</svg>
