<svg width="1960" height="804" viewBox="0 0 1960 804" fill="none" xmlns="http://www.w3.org/2000/svg">
<mask id="mask0_2133_104" style="mask-type:luminance" maskUnits="userSpaceOnUse" x="0" y="0" width="1020" height="805">
<path d="M-6.10352e-05 804L1020 804L1020 0.000305176L-1.74687e-06 0.000199463L-6.10352e-05 804Z" fill="white"/>
</mask>
<g mask="url(#mask0_2133_104)">
<g opacity="0.8">
<mask id="mask1_2133_104" style="mask-type:luminance" maskUnits="userSpaceOnUse" x="76" y="-64" width="300" height="993">
<path d="M76.0884 928.585L375.503 928.585L375.503 -63.9547L76.0884 -63.9547L76.0884 928.585Z" fill="white"/>
</mask>
<g mask="url(#mask1_2133_104)">
<path d="M76.8926 927.735L379 927.735L379 -217.411L76.8926 -217.411L76.8926 927.735Z" fill="#BF2026"/>
</g>
</g>
<g opacity="0.8">
<mask id="mask2_2133_104" style="mask-type:luminance" maskUnits="userSpaceOnUse" x="278" y="-59" width="301" height="994">
<path d="M278.973 934.246L578.388 934.246L578.388 -58.2945L278.973 -58.2945L278.973 934.246Z" fill="white"/>
</mask>
<g mask="url(#mask2_2133_104)">
<path d="M281.602 934.278L583.708 934.278L583.709 -210.859L281.602 -210.859L281.602 934.278Z" fill="#D71B5C"/>
</g>
</g>
<g opacity="0.8">
<mask id="mask3_2133_104" style="mask-type:luminance" maskUnits="userSpaceOnUse" x="552" y="-83" width="268" height="994">
<path d="M552.867 910.134L819.591 910.134L819.591 -82.4058L552.868 -82.4059L552.867 910.134Z" fill="white"/>
</mask>
<g mask="url(#mask3_2133_104)">
<path d="M557.959 906.438L827.081 906.438L827.081 -238.708L557.959 -238.708L557.959 906.438Z" fill="#B32A2D"/>
</g>
</g>
<g opacity="0.8">
<mask id="mask4_2133_104" style="mask-type:luminance" maskUnits="userSpaceOnUse" x="-13" y="-59" width="249" height="993">
<path d="M-12.6197 933.817L235.895 933.817L235.895 -58.742L-12.6196 -58.742L-12.6197 933.817Z" fill="white"/>
</mask>
<g mask="url(#mask4_2133_104)">
<path d="M-12.6197 933.719L238.128 933.719L238.128 -211.408L-12.6197 -211.408L-12.6197 933.719Z" fill="#8E183F"/>
</g>
</g>
<g opacity="0.8">
<mask id="mask5_2133_104" style="mask-type:luminance" maskUnits="userSpaceOnUse" x="773" y="-78" width="300" height="994">
<path d="M773.54 915.08L1072.95 915.08L1072.95 -77.4605L773.54 -77.4606L773.54 915.08Z" fill="white"/>
</mask>
<g mask="url(#mask5_2133_104)">
<path d="M780.609 912.137L1082.72 912.137L1082.72 -232.99L780.609 -232.99L780.609 912.137Z" fill="#E64C25"/>
</g>
</g>
<g opacity="0.8">
<mask id="mask6_2133_104" style="mask-type:luminance" maskUnits="userSpaceOnUse" x="934" y="-88" width="300" height="994">
<path d="M934.227 905.115L1233.64 905.115L1233.64 -87.4248L934.227 -87.4248L934.227 905.115Z" fill="white"/>
</mask>
<g mask="url(#mask6_2133_104)">
<path d="M942.738 900.636L1244.84 900.636L1244.84 -244.482L942.738 -244.482L942.738 900.636Z" fill="#BE2026"/>
</g>
</g>
</g>
<mask id="mask7_2133_104" style="mask-type:luminance" maskUnits="userSpaceOnUse" x="940" y="0" width="1020" height="805">
<path d="M1960 0.000105713L940 0L940 804L1960 804L1960 0.000105713Z" fill="white"/>
</mask>
<g mask="url(#mask7_2133_104)">
<g opacity="0.8">
<mask id="mask8_2133_104" style="mask-type:luminance" maskUnits="userSpaceOnUse" x="1584" y="-125" width="300" height="993">
<path d="M1883.91 -124.585L1584.5 -124.585L1584.5 867.955L1883.91 867.955L1883.91 -124.585Z" fill="white"/>
</mask>
<g mask="url(#mask8_2133_104)">
<path d="M1883.11 -123.734L1581 -123.734L1581 1021.41L1883.11 1021.41L1883.11 -123.734Z" fill="#BF2026"/>
</g>
</g>
<g opacity="0.8">
<mask id="mask9_2133_104" style="mask-type:luminance" maskUnits="userSpaceOnUse" x="1381" y="-131" width="301" height="994">
<path d="M1681.03 -130.245L1381.61 -130.245L1381.61 862.295L1681.03 862.295L1681.03 -130.245Z" fill="white"/>
</mask>
<g mask="url(#mask9_2133_104)">
<path d="M1678.4 -130.277L1376.29 -130.277L1376.29 1014.86L1678.4 1014.86L1678.4 -130.277Z" fill="#D71B5C"/>
</g>
</g>
<g opacity="0.8">
<mask id="mask10_2133_104" style="mask-type:luminance" maskUnits="userSpaceOnUse" x="1140" y="-107" width="268" height="994">
<path d="M1407.13 -106.134L1140.41 -106.134L1140.41 886.406L1407.13 886.406L1407.13 -106.134Z" fill="white"/>
</mask>
<g mask="url(#mask10_2133_104)">
<path d="M1402.04 -102.437L1132.92 -102.438L1132.92 1042.71L1402.04 1042.71L1402.04 -102.437Z" fill="#B32A2D"/>
</g>
</g>
<g opacity="0.8">
<mask id="mask11_2133_104" style="mask-type:luminance" maskUnits="userSpaceOnUse" x="1724" y="-130" width="249" height="993">
<path d="M1972.62 -129.816L1724.1 -129.816L1724.1 862.742L1972.62 862.743L1972.62 -129.816Z" fill="white"/>
</mask>
<g mask="url(#mask11_2133_104)">
<path d="M1972.62 -129.719L1721.87 -129.719L1721.87 1015.41L1972.62 1015.41L1972.62 -129.719Z" fill="#8E183F"/>
</g>
</g>
<g opacity="0.8">
<mask id="mask12_2133_104" style="mask-type:luminance" maskUnits="userSpaceOnUse" x="887" y="-112" width="300" height="994">
<path d="M1186.46 -111.079L887.045 -111.079L887.045 881.461L1186.46 881.461L1186.46 -111.079Z" fill="white"/>
</mask>
<g mask="url(#mask12_2133_104)">
<path d="M1179.39 -108.137L877.284 -108.137L877.284 1036.99L1179.39 1036.99L1179.39 -108.137Z" fill="#E64C25"/>
</g>
</g>
<g opacity="0.8">
<mask id="mask13_2133_104" style="mask-type:luminance" maskUnits="userSpaceOnUse" x="726" y="-102" width="300" height="994">
<path d="M1025.77 -101.115L726.358 -101.115L726.358 891.425L1025.77 891.425L1025.77 -101.115Z" fill="white"/>
</mask>
<g mask="url(#mask13_2133_104)">
<path d="M1017.26 -96.6352L715.155 -96.6353L715.155 1048.48L1017.26 1048.48L1017.26 -96.6352Z" fill="#BE2026"/>
</g>
</g>
</g>
</svg>
