<svg width="157" height="37" viewBox="0 0 157 37" fill="none" xmlns="http://www.w3.org/2000/svg">
<g clip-path="url(#clip0_177_2011)">
<path fill-rule="evenodd" clip-rule="evenodd" d="M34.9773 32.3215H35.6834C36.1488 32.3215 36.4778 32.3937 36.6704 32.5381C36.9592 32.7468 37.1117 33.0437 37.1277 33.4288C37.1358 33.7257 37.0555 33.9745 36.871 34.1831C36.6864 34.3917 36.4617 34.5201 36.1809 34.5522L37.4246 36.2694H36.8308L35.6593 34.6003H35.4587V36.2694H34.9692V32.3215H34.9773ZM35.4748 32.7628V34.1991C35.892 34.1991 36.1969 34.151 36.3895 34.0467C36.5821 33.9424 36.6784 33.7498 36.6784 33.4609C36.6784 33.2603 36.5981 33.0918 36.4457 32.9634C36.2852 32.835 36.0204 32.7708 35.6352 32.7708H35.4748V32.7628ZM40.546 32.3215H42.6644V32.7708H41.0355V33.8782H42.6242V34.3275H41.0355V35.82H42.6644V36.2694H40.546V32.3215ZM47.7597 33.0758C47.6153 32.819 47.3986 32.6906 47.1178 32.6906C46.9332 32.6906 46.7807 32.7468 46.6524 32.8671C46.524 32.9795 46.4598 33.1078 46.4598 33.2362C46.4518 33.4529 46.5801 33.6294 46.8449 33.7578C46.9493 33.7979 47.1017 33.8541 47.2782 33.9263C47.4628 33.9985 47.6393 34.0948 47.8078 34.2072C47.9763 34.3275 48.0967 34.4639 48.1689 34.6244C48.2411 34.7929 48.2732 34.9614 48.2732 35.1299C48.2732 35.475 48.1529 35.7558 47.9041 35.9885C47.6634 36.2212 47.3665 36.3416 47.0215 36.3496C46.7166 36.3496 46.4437 36.2533 46.203 36.0447C45.9623 35.8441 45.8259 35.5713 45.7938 35.2423L46.2833 35.138C46.2833 35.3787 46.3635 35.5713 46.524 35.6996C46.6764 35.828 46.853 35.8922 47.0536 35.8922C47.2301 35.8922 47.3826 35.836 47.527 35.7157C47.6634 35.6033 47.7517 35.4429 47.7757 35.2342C47.8159 34.9855 47.7597 34.7929 47.6233 34.6726C47.4869 34.5522 47.2702 34.4318 46.9894 34.3275C46.7727 34.2392 46.5962 34.151 46.4518 34.0627C46.3073 33.9745 46.195 33.8621 46.1067 33.7257C46.0185 33.5893 45.9703 33.4208 45.9783 33.2202C45.9783 32.9714 46.0826 32.7468 46.2993 32.5381C46.516 32.3295 46.7968 32.2252 47.1499 32.2252C47.5992 32.2252 47.9362 32.4258 48.1609 32.827L47.7757 33.0597L47.7597 33.0758ZM52.1168 32.7708H51.1699V32.3215H53.5451V32.7708H52.6063V36.2694H52.1168V32.7708ZM57.6936 32.153L59.5872 36.2774H59.0496L58.6003 35.2904H56.7949L56.3455 36.2774H55.8079L57.6936 32.153ZM57.6936 33.2362L56.9955 34.833H58.3916L57.6936 33.2362ZM64.9714 32.3215H65.4609V34.833C65.4609 35.138 65.3967 35.4027 65.2764 35.6354C65.156 35.8681 64.9795 36.0447 64.7628 36.1731C64.5381 36.3015 64.2894 36.3656 64.0085 36.3576C63.6795 36.3576 63.4067 36.2774 63.1901 36.1249C62.9734 35.9725 62.821 35.7879 62.7167 35.5552C62.6123 35.3225 62.5642 35.0898 62.5642 34.8571V32.3215H63.0537V34.7367C63.0537 35.0417 63.1259 35.3145 63.2703 35.5472C63.4148 35.7799 63.6635 35.8922 64.0005 35.8922C64.3375 35.8922 64.5702 35.7879 64.7307 35.5793C64.8912 35.3707 64.9634 35.0738 64.9634 34.6966V32.3215H64.9714ZM68.8712 32.3215H69.5773C70.0427 32.3215 70.3717 32.3937 70.5643 32.5381C70.8531 32.7468 71.0056 33.0437 71.0216 33.4288C71.0296 33.7257 70.9494 33.9745 70.7649 34.1831C70.5803 34.3917 70.3556 34.5201 70.0748 34.5522L71.3185 36.2694H70.7247L69.5532 34.6003H69.3526V36.2694H68.8631V32.3215H68.8712ZM69.3606 32.7628V34.1991C69.7779 34.1991 70.0828 34.151 70.2754 34.0467C70.468 33.9424 70.5643 33.7498 70.5643 33.4609C70.5643 33.2603 70.484 33.0918 70.3316 32.9634C70.1711 32.835 69.9063 32.7708 69.5211 32.7708H69.3606V32.7628ZM75.9083 32.153L77.802 36.2774H77.2644L76.815 35.2904H75.0096L74.5603 36.2774H74.0226L75.9083 32.153ZM75.9083 33.2362L75.2102 34.833H76.6064L75.9083 33.2362ZM80.803 32.1289L83.7639 35.2503V32.3215H84.2694V36.4298L81.2925 33.3165V36.2694H80.803V32.1289ZM88.2574 32.7708H87.3106V32.3215H89.6857V32.7708H88.7389V36.2694H88.2494V32.7708H88.2574ZM92.7911 32.3215H94.9094V32.7708H93.2805V33.8782H94.8693V34.3275H93.2805V35.82H94.9094V36.2694H92.7911V32.3215ZM101.2 34.6244C101.281 34.6244 101.353 34.6565 101.417 34.7127C101.473 34.7688 101.505 34.8411 101.505 34.9293C101.505 35.0096 101.473 35.0738 101.417 35.138C101.353 35.2021 101.289 35.2342 101.208 35.2342C101.128 35.2342 101.056 35.2021 100.992 35.138C100.928 35.0738 100.903 35.0015 100.903 34.9293C100.903 34.8491 100.936 34.7769 100.992 34.7127C101.048 34.6565 101.128 34.6244 101.208 34.6244H101.2ZM107.588 32.3215H108.077C108.462 32.3215 108.791 32.3857 109.064 32.5221C109.337 32.6585 109.489 32.9072 109.513 33.2844C109.521 33.477 109.489 33.6535 109.417 33.814C109.345 33.9745 109.224 34.0868 109.064 34.167C109.281 34.1831 109.465 34.2874 109.634 34.488C109.802 34.6806 109.882 34.9213 109.882 35.2021C109.882 35.5472 109.754 35.812 109.489 35.9965C109.232 36.1811 108.895 36.2774 108.494 36.2774H107.58V32.3295L107.588 32.3215ZM108.077 32.7628V34.0707H108.302C108.542 34.0707 108.735 34.0146 108.863 33.9022C108.992 33.7899 109.056 33.6294 109.056 33.4128C109.056 32.9795 108.799 32.7548 108.286 32.7548H108.085L108.077 32.7628ZM108.077 34.4639V35.8361H108.478C109.056 35.8361 109.361 35.6194 109.393 35.1941C109.409 34.9373 109.321 34.7528 109.136 34.6405C108.952 34.5281 108.727 34.4639 108.454 34.4639H108.085H108.077ZM114.625 32.153L116.518 36.2774H115.981L115.531 35.2904H113.726L113.277 36.2774H112.739L114.625 32.153ZM114.625 33.2362L113.927 34.833H115.323L114.625 33.2362ZM119.568 32.3215H120.274C120.739 32.3215 121.068 32.3937 121.261 32.5381C121.55 32.7468 121.702 33.0437 121.718 33.4288C121.726 33.7257 121.646 33.9745 121.461 34.1831C121.277 34.3917 121.052 34.5201 120.771 34.5522L122.015 36.2694H121.421L120.25 34.6003H120.049V36.2694H119.56V32.3215H119.568ZM120.057 32.7628V34.1991C120.474 34.1991 120.779 34.151 120.972 34.0467C121.164 33.9424 121.261 33.7498 121.261 33.4609C121.261 33.2603 121.18 33.0918 121.028 32.9634C120.867 32.835 120.603 32.7708 120.218 32.7708H120.057V32.7628Z" fill="#1E1E1E"/>
<path fill-rule="evenodd" clip-rule="evenodd" d="M13.2478 9.06734L11.8436 11.603L11.5708 11.4585C11.6831 11.1616 11.7393 10.9771 11.7393 10.9129C11.7393 10.7123 11.4986 10.5037 11.0091 10.271C9.69314 9.66112 8.29694 9.34818 6.82853 9.34818C5.61689 9.34818 4.56573 9.57286 3.66702 10.0222C3.23372 10.2469 2.89671 10.5277 2.63994 10.8888C2.39119 11.2419 2.2628 11.619 2.2628 12.0122C2.2628 12.3412 2.35909 12.6461 2.5597 12.943C2.75227 13.2319 3.01707 13.4485 3.33001 13.5929C3.68307 13.7534 4.10033 13.8738 4.58177 13.938C5.06322 13.9942 5.84156 14.0423 6.93284 14.0824C8.44138 14.1306 9.51661 14.2028 10.1585 14.291C10.8085 14.3873 11.3381 14.5558 11.7634 14.7885C12.8787 15.4064 13.4324 16.3532 13.4324 17.6291C13.4324 18.9049 12.9269 19.8277 11.9238 20.606C10.8005 21.4726 9.25984 21.9059 7.30195 21.9059C6.17055 21.9059 5.18358 21.7936 4.33303 21.5609C3.49049 21.3282 2.47945 20.9109 1.30793 20.2931C0.978943 20.1406 0.786364 20.0684 0.730195 20.0684C0.633906 20.0684 0.481447 20.1888 0.264796 20.4215L0 20.253L1.46841 17.7896L1.74926 17.95C1.62087 18.2148 1.5647 18.3914 1.5647 18.4796C1.5647 18.6883 1.98196 19.0092 2.82449 19.4506C3.57876 19.8437 4.30093 20.1246 4.99903 20.3011C5.69713 20.4776 6.4514 20.5659 7.26986 20.5659C8.92283 20.5659 10.1826 20.2048 11.0412 19.4746C11.6109 18.9852 11.8998 18.4154 11.8998 17.7414C11.8998 16.8668 11.4103 16.257 10.4314 15.928C10.1184 15.8156 9.79745 15.7434 9.45242 15.7193C9.1154 15.6872 8.16053 15.6471 6.57978 15.5829C5.4564 15.5348 4.57375 15.4545 3.93182 15.3262C3.29791 15.2058 2.7282 14.9972 2.23071 14.7163C1.76531 14.4515 1.3962 14.0904 1.1314 13.617C0.858581 13.1516 0.722171 12.63 0.722171 12.0764C0.722171 11.1215 1.07523 10.3111 1.78136 9.62903C2.31095 9.13153 3.02509 8.73835 3.95589 8.4575C4.87867 8.16864 5.88971 8.03223 6.98901 8.03223C7.88771 8.03223 8.72222 8.12049 9.48451 8.29702C10.2548 8.47355 11.1214 8.77847 12.0924 9.21177C12.309 9.30004 12.4454 9.34818 12.4936 9.34818C12.6139 9.34818 12.7744 9.2198 12.975 8.955L13.2478 9.09141V9.06734Z" fill="#1E1E1E"/>
<path fill-rule="evenodd" clip-rule="evenodd" d="M25.003 17.9908H17.5807L16.3611 20.6227C16.2487 20.8715 16.1926 21.048 16.1926 21.1523C16.1926 21.3529 16.3932 21.4893 16.7944 21.5615V21.8905H13.7051V21.5615C13.9859 21.5134 14.1946 21.4091 14.339 21.2566C14.4834 21.1042 14.676 20.7671 14.9167 20.2376L19.996 9.26858C20.1164 9.00378 20.1805 8.82725 20.1805 8.73096C20.1805 8.55443 20.012 8.42604 19.6831 8.33778V8.00879H23.0612V8.33778C22.7322 8.44209 22.5637 8.58653 22.5637 8.76306C22.5637 8.8433 22.6279 9.00378 22.7483 9.26858L27.6189 19.8363C27.98 20.6147 28.2127 21.0721 28.3331 21.2085C28.4454 21.3449 28.7022 21.4652 29.0873 21.5535V21.8825H25.7974V21.5535C26.1906 21.4973 26.3832 21.3449 26.3832 21.1042C26.3832 20.9998 26.311 20.7832 26.1585 20.4783L25.0191 17.9908H25.003ZM24.4173 16.6668L21.2959 9.80619L18.1745 16.6668H24.4173Z" fill="#1E1E1E"/>
<path fill-rule="evenodd" clip-rule="evenodd" d="M42.9131 9.40499L41.4607 11.8283L41.196 11.6678C41.2601 11.4672 41.2842 11.3147 41.2842 11.2024C41.2842 10.9376 40.867 10.5926 40.0244 10.1914C38.869 9.62966 37.6172 9.34882 36.2531 9.34882C34.4156 9.34882 32.9311 9.85434 31.7917 10.8734C30.6282 11.9085 30.0504 13.2485 30.0504 14.8855C30.0504 16.5224 30.6523 17.8785 31.8559 18.9617C33.0194 20.0209 34.4557 20.5425 36.1648 20.5425C37.874 20.5425 39.3023 20.053 40.5861 19.0741C41.1639 18.6408 41.4527 18.3278 41.4527 18.1433C41.4527 18.055 41.3966 17.9025 41.2842 17.6939L41.5249 17.5094L43.2742 19.6277L43.0335 19.8283C42.8489 19.6678 42.6965 19.5876 42.5841 19.5876C42.5119 19.5876 42.3835 19.6518 42.215 19.7882C41.6132 20.2376 41.1157 20.5826 40.7145 20.8073C40.3213 21.0319 39.888 21.2245 39.4146 21.385C38.4357 21.714 37.3684 21.8825 36.1969 21.8825C33.9341 21.8825 32.1046 21.2566 30.6924 19.9968C29.2079 18.6809 28.4617 17.0038 28.4617 14.9577C28.4617 13.3448 28.9271 11.9567 29.8579 10.7771C31.3102 8.93156 33.4848 8.00879 36.3895 8.00879C38.3073 8.00879 40.1608 8.51431 41.9582 9.53337C42.0786 9.59757 42.1588 9.62966 42.199 9.62966C42.2872 9.62966 42.4397 9.5093 42.6644 9.26055L42.9292 9.40499H42.9131Z" fill="#1E1E1E"/>
<path fill-rule="evenodd" clip-rule="evenodd" d="M48.3854 15.6309V20.6781C48.3854 20.959 48.4336 21.1515 48.5138 21.2719C48.6021 21.3923 48.7786 21.4805 49.0354 21.5527V21.8817H46.1387V21.5527C46.3954 21.4805 46.572 21.3923 46.6602 21.2799C46.7485 21.1676 46.7886 20.967 46.7886 20.6781V9.20362C46.7886 8.92277 46.7405 8.71415 46.6602 8.60181C46.572 8.48145 46.3954 8.39318 46.1387 8.32899V8H53.7536C54.7967 8 55.6232 8.05617 56.233 8.16851C56.8348 8.28084 57.3644 8.47342 57.8138 8.75427C58.2792 9.03511 58.6483 9.42829 58.9291 9.92579C59.2581 10.4875 59.4186 11.1214 59.4186 11.8195C59.4186 12.8787 59.0655 13.7372 58.3674 14.4113C57.6693 15.0773 56.7064 15.4624 55.4788 15.5507L59.0013 21.0392C59.21 21.3762 59.5149 21.5447 59.9161 21.5447V21.8737H56.7064V21.5447C57.0435 21.4886 57.2039 21.3923 57.2039 21.2639C57.2039 21.1917 57.0836 20.975 56.8509 20.6059L53.6974 15.6229H48.3935L48.3854 15.6309ZM48.3854 14.323H54.0023C54.7646 14.323 55.3423 14.2909 55.7355 14.2267C56.1207 14.1625 56.4657 14.0502 56.7626 13.8737C57.4607 13.4644 57.8138 12.7904 57.8138 11.8275C57.8138 10.8646 57.4527 10.1826 56.7385 9.78135C56.4176 9.60482 56.0645 9.48446 55.6713 9.42027C55.2862 9.3641 54.6763 9.332 53.8579 9.332H48.3774V14.323H48.3854Z" fill="#1E1E1E"/>
<path fill-rule="evenodd" clip-rule="evenodd" d="M72.0485 17.9908H64.6261L63.4065 20.6227C63.2941 20.8715 63.238 21.048 63.238 21.1523C63.238 21.3529 63.4386 21.4893 63.8398 21.5615V21.8905H60.7505V21.5615C61.0313 21.5134 61.24 21.4091 61.3844 21.2566C61.5288 21.1042 61.7214 20.7671 61.9621 20.2376L67.0414 9.26858C67.1618 9.00378 67.226 8.82725 67.226 8.73096C67.226 8.55443 67.0575 8.42604 66.7285 8.33778V8.00879H70.1066V8.33778C69.7696 8.44209 69.6091 8.58653 69.6091 8.76306C69.6091 8.8433 69.6733 9.00378 69.7937 9.26858L74.6643 19.8363C75.0254 20.6147 75.2581 21.0721 75.3785 21.2085C75.4908 21.3449 75.7476 21.4652 76.1327 21.5535V21.8825H72.8428V21.5535C73.236 21.4973 73.4286 21.3449 73.4286 21.1042C73.4286 20.9998 73.3564 20.7832 73.2039 20.4783L72.0645 17.9908H72.0485ZM71.4627 16.6668L68.3413 9.80619L65.2199 16.6668H71.4627Z" fill="#1E1E1E"/>
<path fill-rule="evenodd" clip-rule="evenodd" d="M85.2723 21.8817L79.4468 10.2227V20.6781C79.4468 20.959 79.4949 21.1515 79.5752 21.2719C79.6634 21.3923 79.84 21.4805 80.0967 21.5527V21.8817H77.3364V21.5527C77.5932 21.4805 77.7697 21.3923 77.858 21.2799C77.9463 21.1676 77.9864 20.967 77.9864 20.6781V9.20362C77.9864 8.92277 77.9382 8.71415 77.858 8.60181C77.7697 8.48145 77.5932 8.39318 77.3364 8.32899V8H80.9393V8.32899C80.6103 8.44133 80.4418 8.58576 80.4418 8.75427C80.4418 8.83451 80.5541 9.0993 80.7788 9.54063L85.3926 18.6962L90.0306 9.45237C90.1911 9.12338 90.2713 8.8987 90.2713 8.76229C90.2713 8.58576 90.1028 8.44133 89.7738 8.32899V8H93.4007V8.32899C93.144 8.40121 92.9674 8.48947 92.8792 8.60181C92.7909 8.71415 92.7508 8.91475 92.7508 9.20362V20.6781C92.7508 20.959 92.7989 21.1515 92.8792 21.2719C92.9674 21.3923 93.144 21.4805 93.4007 21.5527V21.8817H90.504V21.5527C90.7688 21.4805 90.9453 21.3923 91.0256 21.2799C91.1138 21.1676 91.154 20.967 91.154 20.6781V10.2227L85.2723 21.8817Z" fill="#1E1E1E"/>
<path fill-rule="evenodd" clip-rule="evenodd" d="M98.4479 15.4058V20.445H107.146C107.427 20.445 107.619 20.4049 107.74 20.3166C107.86 20.2283 107.94 20.0598 108.005 19.8111H108.326V22.3788H108.005C107.94 22.1301 107.852 21.9616 107.732 21.8733C107.611 21.785 107.419 21.7449 107.138 21.7449H96.2493V21.4239C96.506 21.3597 96.6826 21.2715 96.7628 21.1591C96.8511 21.0468 96.8912 20.8542 96.8912 20.5734V9.34763C96.8912 9.06679 96.8511 8.87421 96.7628 8.76187C96.6745 8.64953 96.506 8.56127 96.2573 8.49707V8.17611H107.026C107.307 8.17611 107.499 8.12796 107.611 8.04772C107.724 7.95946 107.812 7.79095 107.876 7.53418H108.197V10.1019H107.876C107.812 9.86118 107.732 9.69267 107.611 9.6044C107.499 9.51614 107.298 9.47602 107.018 9.47602H98.4479V14.13H104.065C104.346 14.13 104.538 14.0819 104.659 14.0016C104.779 13.9134 104.859 13.7449 104.923 13.4961H105.244V16.0638H104.923C104.859 15.8151 104.779 15.6466 104.659 15.5583C104.546 15.47 104.346 15.4299 104.065 15.4299H98.4479V15.4058Z" fill="#1E1E1E"/>
<path fill-rule="evenodd" clip-rule="evenodd" d="M113.108 9.76531V20.6781C113.108 20.959 113.156 21.1515 113.237 21.2719C113.325 21.3923 113.501 21.4805 113.758 21.5527V21.8817H110.998V21.5527C111.263 21.4805 111.439 21.3923 111.519 21.2799C111.608 21.1676 111.648 20.967 111.648 20.6781V9.20362C111.648 8.92277 111.6 8.71415 111.519 8.60181C111.431 8.48145 111.255 8.39318 110.998 8.32899V8H114.986V8.32899C114.665 8.4333 114.504 8.58576 114.504 8.78636C114.504 8.92277 114.665 9.17152 114.986 9.54866L123.339 19.322V9.20362C123.339 8.92277 123.291 8.71415 123.211 8.60181C123.122 8.48145 122.946 8.39318 122.689 8.32899V8H125.449V8.32899C125.192 8.39318 125.016 8.48145 124.928 8.60181C124.839 8.72217 124.799 8.92277 124.799 9.20362V20.6781C124.799 20.959 124.847 21.1676 124.928 21.2799C125.016 21.3923 125.192 21.4886 125.449 21.5527V21.8817H122.248V21.5527C122.561 21.4725 122.713 21.3361 122.713 21.1355C122.713 20.983 122.569 20.7423 122.288 20.4053L113.116 9.76531H113.108Z" fill="#1E1E1E"/>
<path fill-rule="evenodd" clip-rule="evenodd" d="M134.34 8.65V1.44434C134.34 1.29188 134.356 1.15547 134.38 1.03511L134.388 0.978943C134.42 0.866605 134.46 0.77834 134.516 0.706123C134.573 0.633906 134.645 0.569713 134.733 0.513544H132.863C132.952 0.569713 133.024 0.625882 133.072 0.698099C133.096 0.730195 133.112 0.754268 133.128 0.786364C133.128 0.786364 133.16 0.850557 133.168 0.882654C133.224 1.02709 133.249 1.21967 133.249 1.45237V8.65H134.324H134.34ZM134.853 1.44434V9.15552H132.759V1.44434C132.759 1.27584 132.743 1.14745 132.711 1.05918C132.711 1.04314 132.703 1.03511 132.695 1.02709L132.687 1.01104C132.687 1.01104 132.631 0.954871 132.575 0.922774C132.51 0.890678 132.414 0.858581 132.302 0.826485L132.109 0.77834V0H135.495V0.77834L135.303 0.826485C135.19 0.858581 135.102 0.890678 135.038 0.922774C134.99 0.946847 134.95 0.978943 134.926 1.01104C134.91 1.03511 134.894 1.06721 134.885 1.10733L134.877 1.15547C134.861 1.23572 134.853 1.332 134.853 1.44434Z" fill="#1E1E1E"/>
<path fill-rule="evenodd" clip-rule="evenodd" d="M134.597 9.43661V20.6864C134.597 20.9593 134.645 21.1599 134.725 21.2722C134.813 21.3926 134.99 21.4808 135.239 21.553V21.874H132.366V21.553C132.623 21.4808 132.791 21.3926 132.879 21.2802C132.968 21.1679 133.008 20.9673 133.008 20.6864V9.43661H128.354C128.073 9.43661 127.872 9.47673 127.752 9.565C127.632 9.64524 127.543 9.82177 127.487 10.0705H127.166V7.4707H127.487C127.551 7.7355 127.632 7.90401 127.752 7.99227C127.872 8.08054 128.065 8.12066 128.354 8.12066H139.243C139.523 8.12066 139.724 8.07251 139.844 7.99227C139.965 7.90401 140.053 7.72748 140.109 7.4707H140.43V10.0705H140.109C140.045 9.81375 139.965 9.64524 139.844 9.565C139.724 9.47673 139.531 9.43661 139.243 9.43661H134.589H134.597Z" fill="#1E1E1E"/>
<path fill-rule="evenodd" clip-rule="evenodd" d="M148.96 8.00802C151.319 8.00802 153.229 8.62588 154.673 9.8616C155.484 10.5517 156.093 11.3862 156.503 12.3812C156.832 13.1996 157 14.0823 157 15.0211C157 16.2969 156.639 17.4925 155.909 18.6079C155.115 19.8356 153.999 20.7263 152.579 21.2639C151.52 21.6731 150.316 21.8737 148.976 21.8737C146.625 21.8737 144.731 21.2559 143.287 20.0201C142.485 19.3301 141.875 18.4875 141.457 17.5006C141.128 16.6901 140.96 15.8315 140.96 14.9328C140.96 13.6089 141.321 12.3812 142.035 11.2578C142.822 10.0462 143.937 9.1635 145.373 8.60983C146.384 8.22467 147.572 8.01605 148.952 8L148.96 8.00802ZM148.96 9.35608C146.946 9.35608 145.357 9.91777 144.186 11.0492C143.11 12.0843 142.573 13.3842 142.573 14.9489C142.573 16.5136 143.11 17.8215 144.186 18.8566C145.349 19.98 146.946 20.5497 148.976 20.5497C151.006 20.5497 152.619 19.988 153.783 18.8566C154.85 17.8215 155.387 16.5457 155.387 15.0291C155.387 13.3842 154.858 12.0602 153.783 11.0572C153.141 10.4554 152.459 10.0301 151.72 9.78938C150.91 9.51656 149.987 9.37213 148.952 9.3641L148.96 9.35608Z" fill="#1E1E1E"/>
</g>
<defs>
<clipPath id="clip0_177_2011">
<rect width="157" height="36.4375" fill="white"/>
</clipPath>
</defs>
</svg>
