<svg width="214" height="50" viewBox="0 0 214 50" fill="none" xmlns="http://www.w3.org/2000/svg">
<g id="Layer_1" clip-path="url(#clip0_177_2115)">
<path id="Vector" fill-rule="evenodd" clip-rule="evenodd" d="M47.676 44.0171H48.6385C49.2728 44.0171 49.7213 44.1155 49.9838 44.3122C50.3775 44.5963 50.5853 45.0007 50.6072 45.5252C50.6181 45.9295 50.5087 46.2683 50.2572 46.5524C50.0056 46.8365 49.6994 47.0114 49.3166 47.0551L51.0119 49.3936H50.2025L48.6056 47.1206H48.3322V49.3936H47.665V44.0171H47.676ZM48.3541 44.6182V46.5743C48.9228 46.5743 49.3384 46.5087 49.6009 46.3666C49.8634 46.2246 49.9947 45.9623 49.9947 45.5689C49.9947 45.2957 49.8853 45.0662 49.6775 44.8914C49.4588 44.7165 49.0978 44.6291 48.5728 44.6291H48.3541V44.6182ZM55.2665 44.0171H58.1539V44.6291H55.9337V46.1371H58.0993V46.7491H55.9337V48.7817H58.1539V49.3936H55.2665V44.0171ZM65.0992 45.0444C64.9023 44.6947 64.607 44.5198 64.2242 44.5198C63.9726 44.5198 63.7648 44.5963 63.5898 44.7602C63.4148 44.9132 63.3273 45.0881 63.3273 45.2629C63.3164 45.558 63.4914 45.7984 63.8523 45.9732C63.9945 46.0279 64.2023 46.1044 64.4429 46.2027C64.6945 46.3011 64.9351 46.4322 65.1648 46.5852C65.3945 46.7491 65.5585 46.9349 65.657 47.1534C65.7554 47.3829 65.7991 47.6124 65.7991 47.8419C65.7991 48.3118 65.6351 48.6943 65.296 49.0112C64.9679 49.3281 64.5632 49.492 64.0929 49.5029C63.6773 49.5029 63.3054 49.3718 62.9773 49.0877C62.6492 48.8145 62.4633 48.4429 62.4195 47.9949L63.0867 47.8528C63.0867 48.1806 63.1961 48.4429 63.4148 48.6178C63.6226 48.7926 63.8632 48.88 64.1367 48.88C64.3773 48.88 64.5851 48.8035 64.782 48.6396C64.9679 48.4866 65.0882 48.2681 65.121 47.9839C65.1757 47.6452 65.0992 47.3829 64.9132 47.219C64.7273 47.0551 64.432 46.8912 64.0492 46.7491C63.7539 46.6289 63.5132 46.5087 63.3164 46.3885C63.1195 46.2683 62.9664 46.1153 62.8461 45.9295C62.7258 45.7437 62.6601 45.5143 62.6711 45.2411C62.6711 44.9023 62.8133 44.5963 63.1086 44.3122C63.4039 44.0281 63.7867 43.886 64.2679 43.886C64.8804 43.886 65.3398 44.1592 65.646 44.7056L65.121 45.0225L65.0992 45.0444ZM71.0381 44.6291H69.7475V44.0171H72.985V44.6291H71.7053V49.3936H71.0381V44.6291ZM78.6396 43.7877L81.2208 49.4046H80.488L79.8755 48.0604H77.4146L76.8021 49.4046H76.0693L78.6396 43.7877ZM78.6396 45.2629L77.688 47.4376H79.5911L78.6396 45.2629ZM88.5598 44.0171H89.2269V47.4376C89.2269 47.8528 89.1394 48.2134 88.9754 48.5303C88.8113 48.8472 88.5707 49.0877 88.2754 49.2625C87.9691 49.4373 87.6301 49.5248 87.2473 49.5138C86.7988 49.5138 86.427 49.4046 86.1317 49.1969C85.8364 48.9893 85.6285 48.738 85.4864 48.4211C85.3442 48.1042 85.2786 47.7872 85.2786 47.4703V44.0171H85.9457V47.3064C85.9457 47.7217 86.0442 48.0932 86.241 48.4101C86.4379 48.727 86.777 48.88 87.2363 48.88C87.6957 48.88 88.0129 48.738 88.2316 48.4538C88.4504 48.1697 88.5488 47.7654 88.5488 47.2518V44.0171H88.5598ZM93.8753 44.0171H94.8378C95.4721 44.0171 95.9206 44.1155 96.1831 44.3122C96.5768 44.5963 96.7846 45.0007 96.8065 45.5252C96.8174 45.9295 96.7081 46.2683 96.4565 46.5524C96.205 46.8365 95.8987 47.0114 95.5159 47.0551L97.2112 49.3936H96.4018L94.805 47.1206H94.5315V49.3936H93.8644V44.0171H93.8753ZM94.5425 44.6182V46.5743C95.1112 46.5743 95.5268 46.5087 95.7893 46.3666C96.0518 46.2246 96.1831 45.9623 96.1831 45.5689C96.1831 45.2957 96.0737 45.0662 95.8659 44.8914C95.6472 44.7165 95.2862 44.6291 94.7612 44.6291H94.5425V44.6182ZM103.467 43.7877L106.049 49.4046H105.316L104.703 48.0604H102.242L101.63 49.4046H100.897L103.467 43.7877ZM103.467 45.2629L102.516 47.4376H104.419L103.467 45.2629ZM110.139 43.7549L114.175 48.0058V44.0171H114.864V49.6122L110.806 45.3722V49.3936H110.139V43.7549ZM120.3 44.6291H119.009V44.0171H122.247V44.6291H120.956V49.3936H120.289V44.6291H120.3ZM126.48 44.0171H129.367V44.6291H127.147V46.1371H129.312V46.7491H127.147V48.7817H129.367V49.3936H126.48V44.0171ZM137.942 47.1534C138.051 47.1534 138.15 47.1971 138.237 47.2736C138.314 47.3501 138.357 47.4485 138.357 47.5687C138.357 47.678 138.314 47.7654 138.237 47.8528C138.15 47.9402 138.062 47.9839 137.953 47.9839C137.843 47.9839 137.745 47.9402 137.657 47.8528C137.57 47.7654 137.537 47.667 137.537 47.5687C137.537 47.4594 137.581 47.3611 137.657 47.2736C137.734 47.1971 137.843 47.1534 137.953 47.1534H137.942ZM146.648 44.0171H147.315C147.84 44.0171 148.289 44.1046 148.66 44.2903C149.032 44.4761 149.24 44.8149 149.273 45.3285C149.284 45.5908 149.24 45.8312 149.142 46.0497C149.043 46.2683 148.879 46.4213 148.66 46.5305C148.956 46.5524 149.207 46.6945 149.437 46.9677C149.667 47.2299 149.776 47.5578 149.776 47.9402C149.776 48.4101 149.601 48.7707 149.24 49.0221C148.89 49.2734 148.431 49.4046 147.884 49.4046H146.637V44.0281L146.648 44.0171ZM147.315 44.6182V46.3994H147.621C147.95 46.3994 148.212 46.3229 148.387 46.1699C148.562 46.0169 148.65 45.7984 148.65 45.5033C148.65 44.9132 148.299 44.6073 147.6 44.6073H147.326L147.315 44.6182ZM147.315 46.9349V48.8035H147.862C148.65 48.8035 149.065 48.5085 149.109 47.9293C149.131 47.5796 149.01 47.3283 148.759 47.1753C148.507 47.0223 148.201 46.9349 147.829 46.9349H147.326H147.315ZM156.24 43.7877L158.821 49.4046H158.088L157.476 48.0604H155.015L154.403 49.4046H153.67L156.24 43.7877ZM156.24 45.2629L155.288 47.4376H157.192L156.24 45.2629ZM162.977 44.0171H163.94C164.574 44.0171 165.023 44.1155 165.285 44.3122C165.679 44.5963 165.887 45.0007 165.909 45.5252C165.92 45.9295 165.81 46.2683 165.559 46.5524C165.307 46.8365 165.001 47.0114 164.618 47.0551L166.313 49.3936H165.504L163.907 47.1206H163.634V49.3936H162.966V44.0171H162.977ZM163.645 44.6182V46.5743C164.213 46.5743 164.629 46.5087 164.891 46.3666C165.154 46.2246 165.285 45.9623 165.285 45.5689C165.285 45.2957 165.176 45.0662 164.968 44.8914C164.749 44.7165 164.388 44.6291 163.863 44.6291H163.645V44.6182Z" fill="white"/>
<g id="Group">
<path id="Vector_2" fill-rule="evenodd" clip-rule="evenodd" d="M18.0578 12.3482L16.1438 15.8014L15.7719 15.6047C15.925 15.2003 16.0016 14.949 16.0016 14.8616C16.0016 14.5884 15.6735 14.3042 15.0063 13.9873C13.2126 13.1568 11.3095 12.7306 9.30792 12.7306C7.65638 12.7306 6.22359 13.0366 4.99861 13.6486C4.40799 13.9546 3.94862 14.337 3.59863 14.8288C3.25957 15.3096 3.08457 15.8232 3.08457 16.3587C3.08457 16.8067 3.21582 17.222 3.48926 17.6263C3.75175 18.0197 4.11268 18.3147 4.53924 18.5114C5.02048 18.73 5.58922 18.8939 6.24547 18.9813C6.90171 19.0578 7.96263 19.1234 9.45011 19.178C11.5063 19.2436 12.9719 19.342 13.8469 19.4622C14.7328 19.5933 15.4547 19.8228 16.0344 20.1397C17.5547 20.9811 18.3094 22.2706 18.3094 24.0081C18.3094 25.7457 17.6203 27.0024 16.2531 28.0624C14.7219 29.2426 12.6219 29.8327 9.95322 29.8327C8.41106 29.8327 7.06577 29.6797 5.90641 29.3628C4.75799 29.0459 3.37988 28.4776 1.78303 27.6362C1.3346 27.4285 1.0721 27.3302 0.995542 27.3302C0.864294 27.3302 0.656485 27.4941 0.361176 27.811L0.000244141 27.5815L2.00178 24.2267L2.38458 24.4453C2.20959 24.8059 2.13303 25.0463 2.13303 25.1665C2.13303 25.4506 2.70177 25.8877 3.85019 26.4888C4.8783 27.0242 5.86266 27.4067 6.81421 27.6471C7.76576 27.8875 8.79387 28.0077 9.90948 28.0077C12.1626 28.0077 13.8797 27.516 15.05 26.5215C15.8266 25.8549 16.2203 25.0791 16.2203 24.1611C16.2203 22.97 15.5531 22.1395 14.2188 21.6914C13.7922 21.5385 13.3547 21.4401 12.8844 21.4073C12.4251 21.3636 11.1235 21.309 8.96886 21.2215C7.43764 21.156 6.23453 21.0467 5.35954 20.8719C4.49549 20.7079 3.71894 20.4238 3.04082 20.0413C2.40646 19.6807 1.90334 19.189 1.54241 18.5442C1.17054 17.9104 0.984605 17.2001 0.984605 16.4461C0.984605 15.1457 1.46585 14.042 2.42833 13.1131C3.1502 12.4356 4.12362 11.9001 5.39235 11.5177C6.65015 11.1242 8.02825 10.9385 9.52667 10.9385C10.7516 10.9385 11.8891 11.0587 12.9282 11.2991C13.9782 11.5395 15.1594 11.9548 16.4828 12.5449C16.7781 12.6651 16.9641 12.7306 17.0297 12.7306C17.1937 12.7306 17.4125 12.5558 17.6859 12.1952L18.0578 12.3809V12.3482Z" fill="white"/>
<path id="Vector_3" fill-rule="evenodd" clip-rule="evenodd" d="M34.0809 24.4995H23.9639L22.3014 28.0838C22.1483 28.4226 22.0717 28.663 22.0717 28.805C22.0717 29.0782 22.3452 29.264 22.892 29.3623V29.8104H18.6812V29.3623C19.064 29.2968 19.3483 29.1547 19.5452 28.9471C19.7421 28.7395 20.0046 28.2805 20.3327 27.5593L27.256 12.6209C27.4201 12.2603 27.5076 12.0199 27.5076 11.8888C27.5076 11.6484 27.2779 11.4735 26.8295 11.3533V10.9053H31.4341V11.3533C30.9857 11.4954 30.756 11.6921 30.756 11.9325C30.756 12.0418 30.8435 12.2603 31.0075 12.6209L37.6465 27.0129C38.1387 28.0729 38.4559 28.6957 38.6199 28.8815C38.773 29.0673 39.123 29.2312 39.648 29.3514V29.7995H35.1637V29.3514C35.6997 29.2749 35.9622 29.0673 35.9622 28.7395C35.9622 28.5974 35.8637 28.3023 35.6559 27.8871L34.1028 24.4995H34.0809ZM33.2825 22.6964L29.0279 13.3531L24.7733 22.6964H33.2825Z" fill="white"/>
<path id="Vector_4" fill-rule="evenodd" clip-rule="evenodd" d="M58.4933 12.8067L56.5137 16.1069L56.1527 15.8884C56.2402 15.6152 56.273 15.4075 56.273 15.2545C56.273 14.8939 55.7043 14.424 54.5559 13.8776C52.9809 13.1127 51.2747 12.7302 49.4153 12.7302C46.9107 12.7302 44.8873 13.4187 43.3342 14.8065C41.7482 16.2162 40.9608 18.0411 40.9608 20.2704C40.9608 22.4997 41.7811 24.3465 43.4217 25.8217C45.0076 27.2642 46.9654 27.9745 49.295 27.9745C51.6247 27.9745 53.5715 27.3079 55.3215 25.9747C56.109 25.3846 56.5027 24.9584 56.5027 24.7071C56.5027 24.5869 56.4262 24.3793 56.273 24.0951L56.6012 23.8438L58.9855 26.7287L58.6574 27.0019C58.4058 26.7834 58.198 26.6741 58.0449 26.6741C57.9464 26.6741 57.7715 26.7615 57.5418 26.9473C56.7215 27.5593 56.0434 28.0292 55.4965 28.3351C54.9606 28.6411 54.3699 28.9034 53.7246 29.1219C52.3903 29.57 50.9356 29.7995 49.3388 29.7995C46.2544 29.7995 43.7607 28.9471 41.8357 27.2314C39.8123 25.4393 38.7952 23.1553 38.7952 20.3688C38.7952 18.1723 39.4295 16.2818 40.6983 14.6754C42.6779 12.162 45.6419 10.9053 49.6013 10.9053C52.2153 10.9053 54.7418 11.5937 57.1918 12.9816C57.3558 13.069 57.4652 13.1127 57.5199 13.1127C57.6402 13.1127 57.848 12.9488 58.1543 12.61L58.5152 12.8067H58.4933Z" fill="white"/>
<path id="Vector_5" fill-rule="evenodd" clip-rule="evenodd" d="M65.9523 21.2879V28.1614C65.9523 28.5439 66.018 28.8062 66.1273 28.9701C66.2477 29.134 66.4883 29.2542 66.8383 29.3526V29.8006H62.8899V29.3526C63.2399 29.2542 63.4805 29.134 63.6008 28.981C63.7211 28.828 63.7758 28.5548 63.7758 28.1614V12.5347C63.7758 12.1522 63.7102 11.8681 63.6008 11.7151C63.4805 11.5512 63.2399 11.431 62.8899 11.3435V10.8955H73.2694C74.6913 10.8955 75.8178 10.972 76.6491 11.125C77.4694 11.278 78.1912 11.5402 78.8037 11.9227C79.4381 12.3052 79.9412 12.8407 80.324 13.5182C80.7724 14.2831 80.9912 15.1464 80.9912 16.0971C80.9912 17.5396 80.5099 18.7089 79.5584 19.6268C78.6068 20.5338 77.2944 21.0584 75.621 21.1786L80.4224 28.6532C80.7068 29.1122 81.1224 29.3417 81.6693 29.3417V29.7897H77.2944V29.3417C77.7537 29.2652 77.9725 29.134 77.9725 28.9592C77.9725 28.8608 77.8084 28.5658 77.4912 28.0631L73.1929 21.2769H65.9633L65.9523 21.2879ZM65.9523 19.5066H73.6085C74.6475 19.5066 75.435 19.4629 75.971 19.3755C76.4959 19.2881 76.9662 19.1351 77.3709 18.8947C78.3225 18.3373 78.8037 17.4194 78.8037 16.1081C78.8037 14.7967 78.3115 13.8679 77.3381 13.3215C76.9006 13.0811 76.4194 12.9172 75.8834 12.8297C75.3585 12.7532 74.5272 12.7095 73.4116 12.7095H65.9414V19.5066H65.9523Z" fill="white"/>
<path id="Vector_6" fill-rule="evenodd" clip-rule="evenodd" d="M98.2067 24.4995H88.0896L86.4271 28.0838C86.274 28.4226 86.1975 28.663 86.1975 28.805C86.1975 29.0782 86.4709 29.264 87.0178 29.3623V29.8104H82.8069V29.3623C83.1897 29.2968 83.4741 29.1547 83.6709 28.9471C83.8678 28.7395 84.1303 28.2805 84.4584 27.5593L91.3818 12.6209C91.5458 12.2603 91.6333 12.0199 91.6333 11.8888C91.6333 11.6484 91.4036 11.4735 90.9552 11.3533V10.9053H95.5598V11.3533C95.1005 11.4954 94.8817 11.6921 94.8817 11.9325C94.8817 12.0418 94.9692 12.2603 95.1333 12.6209L101.772 27.0129C102.264 28.0729 102.582 28.6957 102.746 28.8815C102.899 29.0673 103.249 29.2312 103.774 29.3514V29.7995H99.2895V29.3514C99.8254 29.2749 100.088 29.0673 100.088 28.7395C100.088 28.5974 99.9895 28.3023 99.7816 27.8871L98.2285 24.4995H98.2067ZM97.4082 22.6964L93.1536 13.3531L88.899 22.6964H97.4082Z" fill="white"/>
<path id="Vector_7" fill-rule="evenodd" clip-rule="evenodd" d="M116.231 29.8006L108.291 13.9225V28.1614C108.291 28.5439 108.356 28.8062 108.466 28.9701C108.586 29.134 108.827 29.2542 109.177 29.3526V29.8006H105.414V29.3526C105.764 29.2542 106.005 29.134 106.125 28.981C106.246 28.828 106.3 28.5548 106.3 28.1614V12.5347C106.3 12.1522 106.235 11.8681 106.125 11.7151C106.005 11.5512 105.764 11.431 105.414 11.3435V10.8955H110.325V11.3435C109.877 11.4965 109.647 11.6932 109.647 11.9227C109.647 12.032 109.8 12.3926 110.106 12.9936L116.395 25.4623L122.717 12.8734C122.936 12.4254 123.045 12.1194 123.045 11.9336C123.045 11.6932 122.816 11.4965 122.367 11.3435V10.8955H127.311V11.3435C126.961 11.4419 126.72 11.5621 126.6 11.7151C126.48 11.8681 126.425 12.1413 126.425 12.5347V28.1614C126.425 28.5439 126.491 28.8062 126.6 28.9701C126.72 29.134 126.961 29.2542 127.311 29.3526V29.8006H123.362V29.3526C123.723 29.2542 123.964 29.134 124.073 28.981C124.194 28.828 124.248 28.5548 124.248 28.1614V13.9225L116.231 29.8006Z" fill="white"/>
<path id="Vector_8" fill-rule="evenodd" clip-rule="evenodd" d="M134.19 20.9819V27.8446H146.046C146.429 27.8446 146.692 27.7899 146.856 27.6697C147.02 27.5495 147.129 27.32 147.217 26.9813H147.654V30.4782H147.217C147.129 30.1394 147.009 29.9099 146.845 29.7897C146.681 29.6695 146.418 29.6149 146.035 29.6149H131.193V29.1778C131.543 29.0903 131.784 28.9701 131.893 28.8171C132.014 28.6642 132.068 28.4019 132.068 28.0194V12.7314C132.068 12.3489 132.014 12.0867 131.893 11.9337C131.773 11.7807 131.543 11.6605 131.204 11.5731V11.1359H145.882C146.265 11.1359 146.528 11.0704 146.681 10.9611C146.834 10.8409 146.954 10.6114 147.042 10.2617H147.479V13.7586H147.042C146.954 13.4308 146.845 13.2013 146.681 13.0811C146.528 12.9609 146.254 12.9062 145.871 12.9062H134.19V19.2444H141.846C142.229 19.2444 142.492 19.1788 142.656 19.0695C142.82 18.9493 142.929 18.7198 143.017 18.3811H143.454V21.878H143.017C142.929 21.5392 142.82 21.3097 142.656 21.1895C142.503 21.0693 142.229 21.0147 141.846 21.0147H134.19V20.9819Z" fill="white"/>
<path id="Vector_9" fill-rule="evenodd" clip-rule="evenodd" d="M154.173 13.2996V28.1614C154.173 28.5439 154.239 28.8062 154.348 28.9701C154.468 29.134 154.709 29.2542 155.059 29.3526V29.8006H151.296V29.3526C151.657 29.2542 151.898 29.134 152.007 28.981C152.128 28.828 152.182 28.5548 152.182 28.1614V12.5347C152.182 12.1522 152.117 11.8681 152.007 11.7151C151.887 11.5512 151.646 11.431 151.296 11.3435V10.8955H156.732V11.3435C156.295 11.4856 156.076 11.6932 156.076 11.9664C156.076 12.1522 156.295 12.491 156.732 13.0046L168.118 26.3146V12.5347C168.118 12.1522 168.052 11.8681 167.943 11.7151C167.823 11.5512 167.582 11.431 167.232 11.3435V10.8955H170.995V11.3435C170.645 11.431 170.404 11.5512 170.284 11.7151C170.163 11.879 170.109 12.1522 170.109 12.5347V28.1614C170.109 28.5439 170.174 28.828 170.284 28.981C170.404 29.134 170.645 29.2652 170.995 29.3526V29.8006H166.631V29.3526C167.057 29.2433 167.265 29.0575 167.265 28.7843C167.265 28.5767 167.068 28.2489 166.685 27.7899L154.184 13.2996H154.173Z" fill="white"/>
<path id="Vector_10" fill-rule="evenodd" clip-rule="evenodd" d="M183.113 11.7802V1.96701C183.113 1.75938 183.135 1.5736 183.168 1.40969L183.179 1.33319C183.223 1.1802 183.277 1.06 183.354 0.961647C183.431 0.863297 183.529 0.775875 183.649 0.69938H181.101C181.221 0.775875 181.32 0.852369 181.385 0.95072C181.418 0.994431 181.44 1.02721 181.462 1.07093C181.462 1.07093 181.506 1.15835 181.516 1.20206C181.593 1.39876 181.626 1.66103 181.626 1.97793V11.7802H183.091H183.113ZM183.813 1.96701V12.4686H180.959V1.96701C180.959 1.73752 180.937 1.56268 180.893 1.44247C180.893 1.42062 180.882 1.40969 180.871 1.39876L180.86 1.3769C180.86 1.3769 180.784 1.30041 180.707 1.2567C180.62 1.21299 180.488 1.16928 180.335 1.12556L180.073 1.06V0H184.688V1.06L184.426 1.12556C184.273 1.16928 184.152 1.21299 184.065 1.2567C183.999 1.28948 183.945 1.33319 183.912 1.3769C183.89 1.40969 183.868 1.4534 183.857 1.50804L183.846 1.5736C183.824 1.68288 183.813 1.81402 183.813 1.96701Z" fill="white"/>
<path id="Vector_11" fill-rule="evenodd" clip-rule="evenodd" d="M183.463 12.8511V28.1719C183.463 28.5435 183.529 28.8167 183.638 28.9697C183.758 29.1336 183.999 29.2538 184.338 29.3521V29.7892H180.422V29.3521C180.772 29.2538 181.002 29.1336 181.122 28.9806C181.243 28.8276 181.297 28.5544 181.297 28.1719V12.8511H174.954C174.571 12.8511 174.297 12.9058 174.133 13.026C173.969 13.1353 173.849 13.3757 173.772 13.7144H173.335V10.1738H173.772C173.86 10.5344 173.969 10.7639 174.133 10.8841C174.297 11.0043 174.56 11.059 174.954 11.059H189.796C190.178 11.059 190.452 10.9934 190.616 10.8841C190.78 10.7639 190.9 10.5235 190.977 10.1738H191.414V13.7144H190.977C190.889 13.3647 190.78 13.1353 190.616 13.026C190.452 12.9058 190.189 12.8511 189.796 12.8511H183.452H183.463Z" fill="white"/>
<path id="Vector_12" fill-rule="evenodd" clip-rule="evenodd" d="M203.041 10.9064C206.257 10.9064 208.86 11.7479 210.829 13.4308C211.933 14.3706 212.765 15.507 213.322 16.8621C213.771 17.9767 214 19.1788 214 20.4573C214 22.1949 213.508 23.8231 212.513 25.3421C211.43 27.014 209.91 28.227 207.974 28.9592C206.53 29.5165 204.89 29.7897 203.063 29.7897C199.858 29.7897 197.277 28.9483 195.309 27.2654C194.215 26.3256 193.384 25.1782 192.815 23.834C192.366 22.7303 192.137 21.5611 192.137 20.3371C192.137 18.534 192.629 16.8621 193.602 15.3322C194.674 13.6821 196.194 12.48 198.152 11.726C199.53 11.2015 201.149 10.9174 203.03 10.8955L203.041 10.9064ZM203.041 12.7423C200.296 12.7423 198.13 13.5073 196.534 15.0481C195.068 16.4578 194.335 18.2281 194.335 20.359C194.335 22.4899 195.068 24.2711 196.534 25.6808C198.119 27.2107 200.296 27.9866 203.063 27.9866C205.83 27.9866 208.029 27.2217 209.615 25.6808C211.069 24.2711 211.802 22.5336 211.802 20.4683C211.802 18.2281 211.08 16.425 209.615 15.059C208.74 14.2394 207.81 13.6602 206.804 13.3324C205.699 12.9609 204.441 12.7642 203.03 12.7532L203.041 12.7423Z" fill="white"/>
</g>
</g>
<defs>
<clipPath id="clip0_177_2115">
<rect width="214" height="49.6232" fill="white" transform="translate(0.000244141)"/>
</clipPath>
</defs>
</svg>
